<?xml version="1.0" encoding="iso-8859-1"?>
<!-- Generator: Adobe Illustrator 19.0.0, SVG Export Plug-In . SVG Version: 6.00 Build 0)  -->
<svg xmlns="http://www.w3.org/2000/svg" xmlns:xlink="http://www.w3.org/1999/xlink" version="1.1" id="Capa_1" x="0px" y="0px" viewBox="0 0 512.001 512.001" style="enable-background:new 0 0 512.001 512.001;" xml:space="preserve" width="512px" height="512px">
<g>
	<g>
		<path d="M368.03,363.832c-6.052-17.721-18.589-30.755-35.299-36.703c-26.151-9.308-48.482-0.952-60.219,5.451    c-5.075-12.382-17.142-32.984-43.293-42.292c-14.437-5.139-29.601-4.269-43.853,2.514c-17.802,8.473-32.302,25.434-39.78,46.535    c-9.824,27.721-15.037,86.695,60.428,170.192c1.433,1.586,3.46,2.471,5.563,2.471c0.379,0,0.76-0.029,1.14-0.087    c62.82-9.663,109.932-31.478,136.243-63.085c2.65-3.184,2.217-7.913-0.966-10.563c-3.182-2.649-7.91-2.218-10.561,0.965    c-23.39,28.099-65.869,47.847-122.996,57.222c-67.436-76.073-63.31-127.85-54.715-152.104    c6.158-17.376,17.853-31.227,32.088-38.002c10.578-5.034,21.775-5.701,32.38-1.926c29.828,10.616,36.634,40.008,36.904,41.228    c0.543,2.549,2.371,4.632,4.826,5.504c2.453,0.871,5.187,0.406,7.215-1.23c0.242-0.194,24.503-19.359,54.567-8.661    c25.483,9.07,36.191,39.919,24.907,71.757c-1.384,3.904,0.659,8.191,4.562,9.575c3.904,1.385,8.19-0.66,9.573-4.563    C373.246,399.685,373.702,380.438,368.03,363.832z" fill="#D80027"/>
	</g>
</g>
<g>
	<g>
		<path d="M430.932,190.93c-5.986-12.37-16.453-20.992-29.474-24.28c-18.837-4.755-34.036,1.24-42.707,6.331    c-5.215-8.597-15.745-21.089-34.58-25.844c-13.023-3.288-26.328-0.667-37.468,7.377c-10.44,7.539-18.072,19.138-21.489,32.662    c-5.078,20.103-4.399,61.87,57.209,115.721c1.381,1.207,3.139,1.853,4.935,1.853c0.554,0,1.112-0.062,1.663-0.187    c79.796-18.149,100.231-54.583,105.309-74.685C437.747,216.353,436.541,202.522,430.932,190.93z M419.789,226.203    c-4.163,16.48-21.479,46.292-90.364,62.861c-52.753-47.279-53.832-81.735-49.669-98.214c4.61-18.248,18.286-30.088,33.443-30.088    c2.407,0,4.851,0.299,7.302,0.917c21.182,5.348,28.056,24.074,28.352,24.909c0.828,2.384,2.799,4.192,5.247,4.811    c2.462,0.624,5.068-0.043,6.93-1.767c0.15-0.14,15.291-13.861,36.758-8.439c11.083,2.798,16.8,10.392,19.644,16.27    C421.505,205.886,422.344,216.092,419.789,226.203z" fill="#D80027"/>
	</g>
</g>
<g>
	<g>
		<path d="M397.505,53.215c-1.399-9.767-5.923-18.508-12.741-24.615c-7.369-6.6-16.706-9.481-26.296-8.102    c-12.166,1.745-20.143,8.345-24.799,13.797c-5.999-3.923-15.505-8.017-27.673-6.269c-18.873,2.707-31.296,21.319-28.281,42.371    c0.657,4.574,2.049,9.121,4.138,13.515c1.78,3.74,6.254,5.331,9.993,3.551c3.74-1.78,5.33-6.254,3.551-9.995    c-1.44-3.027-2.393-6.122-2.834-9.198c-1.576-11.003,3.343-23.643,15.564-25.397c12.985-1.862,21.169,6.976,21.47,7.307    c1.671,1.909,4.19,2.845,6.706,2.484c2.511-0.36,4.671-1.966,5.738-4.268c0.052-0.111,5.527-11.181,18.557-13.05    c6.566-0.939,11.325,1.889,14.161,4.429c4.195,3.757,7.001,9.286,7.9,15.567c2.539,17.729-11.135,38.858-37.624,58.331    c-12.223-4.439-22.582-9.641-30.833-15.487c-3.379-2.394-8.06-1.595-10.454,1.785c-2.394,3.38-1.595,8.061,1.784,10.455    c10.23,7.248,23.111,13.546,38.285,18.719c0.789,0.269,1.606,0.401,2.419,0.401c1.526,0,3.037-0.466,4.317-1.367    C396.149,96.08,399.542,67.433,397.505,53.215z" fill="#D80027"/>
	</g>
</g>
<g>
	<g>
		<path d="M134.637,28.554c-3.784-11.87-12.503-21.584-23.322-25.985c-9.563-3.891-19.888-3.338-29.071,1.555    c-12.39,6.602-21.678,16.84-26.374,28.803c-11.657-2.515-24.976,0.275-35.908,7.9C10.242,47.608,3.517,57.958,1.026,69.97    C-1.48,82.053,0.64,94.2,6.994,104.174c14.455,22.688,42.607,27.058,68.198,27.058c8.958,0,17.605-0.536,25.237-1.009l2.327-0.144    c2.524-0.154,4.8-1.57,6.054-3.766l0.581-1.019C124.583,98.7,145.388,62.278,134.637,28.554z M97.796,115.356    c-25.905,1.597-63.71,3.427-78.153-19.243c-8.792-13.8-4.717-33.484,8.9-42.983c5.796-4.042,12.439-6.149,18.657-6.149    c3.685,0,7.22,0.74,10.339,2.255c2.079,1.01,4.508,1.005,6.584-0.016c2.074-1.02,3.563-2.939,4.034-5.203    c2.256-10.839,10.159-20.804,21.141-26.656c6.647-3.541,12.57-2.443,16.368-0.898c6.746,2.744,12.235,8.967,14.684,16.647    C128.802,59.624,111.437,91.428,97.796,115.356z" fill="#D80027"/>
	</g>
</g>
<g>
	<g>
		<path d="M257.122,11.511C252.51,5.224,245.654,1.494,237.82,1.008c-9.466-0.584-18.48,1.802-25.72,6.672    c-6.283-5.322-14.953-8.15-24.163-7.615c-18.247,1.052-32.859,16.64-32.572,34.75c0.416,26.309,28.147,41.087,46.497,50.866    l1.41,0.752c1.104,0.589,2.318,0.884,3.532,0.884c1.239,0,2.477-0.307,3.598-0.919l0.706-0.386    c18.824-10.291,44.604-24.386,50.692-48.968C264.021,28.075,262.273,18.53,257.122,11.511z M247.242,33.437    c-4.249,17.155-24.455,29.043-40.485,37.855c-15.163-8.116-36.132-20.054-36.396-36.715c-0.159-10.006,8.285-18.952,18.439-19.538    c0.435-0.025,0.868-0.037,1.299-0.037c6.366,0,12.133,2.711,14.931,7.103c1.242,1.95,3.314,3.218,5.615,3.436    c2.3,0.215,4.575-0.636,6.162-2.318c4.741-5.022,12.251-7.732,20.084-7.245c4.25,0.263,6.772,2.541,8.14,4.405    C247.578,23.857,248.406,28.736,247.242,33.437z" fill="#D80027"/>
	</g>
</g>
<g>
	<g>
		<path d="M497.198,28.552c-7.602-5.304-16.497-7.442-24.669-6.191c-3.625-7.976-10.077-14.766-18.481-19.243    c-6.948-3.703-14.764-4.12-22.005-1.174c-8.088,3.29-14.598,10.526-17.413,19.357c-7.719,24.212,6.91,49.821,17.591,68.52    l0.401,0.702c1.254,2.196,3.53,3.612,6.054,3.766l1.602,0.099c5.33,0.33,11.354,0.704,17.611,0.704    c18.191,0,38.323-3.16,48.878-19.726C516.529,60.041,512.237,39.042,497.198,28.552z M494.119,67.303    c-9,14.127-33.235,13.3-50.479,12.261c-9.078-15.975-20.115-36.785-14.72-53.708c1.479-4.64,4.759-8.386,8.774-10.018    c2.156-0.877,5.518-1.499,9.303,0.517c6.963,3.71,11.965,9.984,13.379,16.783c0.471,2.264,1.96,4.184,4.034,5.203    c2.074,1.02,4.503,1.026,6.584,0.016c5.031-2.444,11.949-1.462,17.625,2.498C497.007,46.706,499.526,58.818,494.119,67.303z" fill="#D80027"/>
	</g>
</g>
<g>
	<g>
		<path d="M239.166,161.72c-8.521-24.252-36.686-37.7-61.499-29.365c-13.684,4.596-24.822,14.469-30.216,26.276    c-13.212-3.771-28.056-2.356-41.864,4.18c-10.118,4.79-17.292,13.357-20.201,24.125c-3.224,11.935-0.782,25.43,6.533,36.099    c7.473,10.898,18.654,19.63,33.235,25.952c3.801,1.647,8.216-0.098,9.863-3.897c1.645-3.802-0.1-8.218-3.899-9.866    c-12.12-5.255-20.897-12.017-26.831-20.673c-4.863-7.093-6.517-15.954-4.423-23.704c1.234-4.568,4.342-10.788,12.137-14.478    c12.351-5.847,26.132-6.31,36.862-1.238c2.07,0.978,4.474,0.957,6.528-0.059c2.053-1.016,3.529-2.914,4.008-5.154    c2.185-10.213,11.229-19.377,23.042-23.344c17.212-5.782,36.711,3.431,42.575,20.118c9.718,27.66-17.354,59.742-35.984,81.383    c-8.695-1.058-18.302-2.283-27.734-4.084c-4.068-0.777-7.995,1.891-8.772,5.96c-0.777,4.068,1.891,7.997,5.959,8.773    c10.928,2.087,21.836,3.407,31.46,4.571l1.257,0.152c0.302,0.036,0.603,0.054,0.903,0.054c2.169,0,4.251-0.942,5.684-2.609    l1.662-1.93C220.348,234.701,251.926,198.037,239.166,161.72z" fill="#D80027"/>
	</g>
</g>
<g>
</g>
<g>
</g>
<g>
</g>
<g>
</g>
<g>
</g>
<g>
</g>
<g>
</g>
<g>
</g>
<g>
</g>
<g>
</g>
<g>
</g>
<g>
</g>
<g>
</g>
<g>
</g>
<g>
</g>
</svg>
